<svg xmlns="http://www.w3.org/2000/svg" version="1.1" xmlns:xlink="http://www.w3.org/1999/xlink" width="600" height="600"><svg width="600" height="600" viewBox="0 0 600 600" fill="none" xmlns="http://www.w3.org/2000/svg">
<path d="M600 300C600 465.685 465.685 600 300 600C134.315 600 0 465.685 0 300C0 134.315 134.315 0 300 0C465.685 0 600 134.315 600 300Z" fill="#EDEDED"></path>
<path d="M264.947 242.82C256.305 242.82 250.372 241.648 247.149 239.305C244.073 236.814 242.535 231.834 242.535 224.363C242.535 202.098 248.395 181.077 260.113 161.302C264.947 153.245 267.877 148.045 268.902 145.701C269.928 143.357 270.44 141.233 270.44 139.329C270.44 136.839 269.488 134.861 267.584 133.396C265.826 131.785 262.896 129.954 258.795 127.903C256.451 126.731 254.474 124.974 252.862 122.63C251.397 120.14 250.665 117.43 250.665 114.5C250.665 109.666 251.837 104.905 254.181 100.218C256.524 95.5303 259.601 91.4287 263.409 87.9131C267.218 84.3975 270.147 82.6396 272.198 82.6396C273.663 82.6396 274.396 83.3721 274.396 84.8369L273.956 88.792C273.956 91.8682 278.937 94.5781 288.897 96.9219C300.909 99.998 306.915 104.393 306.915 110.105C306.915 113.328 303.18 120.066 295.709 130.32C283.258 147.605 275.274 160.13 271.759 167.894C268.243 175.511 266.485 183.348 266.485 191.404C266.485 195.652 267.73 198.655 270.221 200.413C272.857 202.171 277.618 203.05 284.503 203.05H382.501C394.513 203.05 403.009 205.613 407.989 210.74C412.97 215.721 415.46 224.876 415.46 238.206C415.46 258.274 413.263 277.757 408.868 296.653C404.62 315.403 397.882 330.125 388.653 340.818C379.425 351.365 361.114 363.963 333.722 378.611C301.495 396.043 285.382 411.058 285.382 423.655L285.821 434.422C285.821 439.109 284.796 443.284 282.745 446.946C280.694 450.462 277.984 453.245 274.615 455.296C271.246 457.347 267.877 458.372 264.508 458.372C259.088 458.372 255.279 456.761 253.082 453.538C250.885 450.315 249.786 446.653 249.786 442.552C249.786 434.788 252.203 426.438 257.037 417.503C261.871 408.421 268.536 399.925 277.032 392.015C285.528 383.958 300.689 373.777 322.516 361.473C340.387 351.365 353.204 343.089 360.968 336.644C368.878 330.052 374.371 323.973 377.447 318.406C380.523 312.693 383.014 304.856 384.918 294.896C386.969 284.788 387.994 274.607 387.994 264.354C387.994 257.908 387.335 253.294 386.017 250.511C384.698 247.581 382.208 245.604 378.546 244.578C375.03 243.406 367.926 242.82 357.232 242.82H264.947ZM287.579 305.223C287.579 300.096 289.337 295.921 292.853 292.698C296.368 289.329 300.47 287.645 305.157 287.645C309.845 287.645 313.946 289.329 317.462 292.698C320.978 295.921 322.735 300.096 322.735 305.223C322.735 309.91 320.978 313.938 317.462 317.308C313.946 320.53 309.845 322.142 305.157 322.142C300.47 322.142 296.368 320.53 292.853 317.308C289.337 313.938 287.579 309.91 287.579 305.223Z" fill="black"></path>
</svg><style>@media (prefers-color-scheme: light) { :root { filter: none; } }
@media (prefers-color-scheme: dark) { :root { filter: none; } }
</style></svg>