<svg width="2253" height="600" viewBox="0 0 2253 600" fill="none" xmlns="http://www.w3.org/2000/svg">
<circle cx="300" cy="300" r="300" fill="#030712"/>
<path d="M1999.01 271.04C2007.91 259.258 2019.45 249.64 2033.64 242.186C2047.83 234.732 2063.22 231.005 2079.81 231.005C2103.37 231.005 2122.25 238.098 2136.43 252.285C2150.86 266.472 2158.07 285.708 2158.07 309.994C2158.07 316.967 2157.35 324.421 2155.91 332.356C2152.3 352.314 2144.97 370.107 2133.91 385.737C2123.09 401.366 2109.74 413.509 2093.87 422.166C2078.24 430.822 2061.65 435.15 2044.1 435.15C2027.03 435.15 2012.72 431.423 2001.18 423.969C1989.64 416.515 1981.58 407.017 1977.01 395.475L1970.52 431.904H1937.7L1984.95 165H2017.77L1999.01 271.04ZM2122.37 332.356C2123.33 327.306 2123.81 321.776 2123.81 315.765C2123.81 298.211 2118.64 284.506 2108.3 274.647C2097.96 264.548 2084.62 259.498 2068.26 259.498C2056.24 259.498 2044.58 262.504 2033.28 268.515C2021.98 274.286 2012.24 282.822 2004.06 294.124C1996.13 305.185 1990.84 318.049 1988.19 332.717C1987.23 337.766 1986.75 343.297 1986.75 349.308C1986.75 366.861 1991.92 380.807 2002.26 391.147C2012.84 401.246 2026.19 406.296 2042.3 406.296C2054.56 406.296 2066.22 403.41 2077.28 397.639C2088.58 391.628 2098.2 383.092 2106.14 372.031C2114.31 360.73 2119.72 347.505 2122.37 332.356Z" fill="#030712"/>
<path d="M1727.86 332.355C1731.47 312.157 1738.68 294.484 1749.5 279.335C1760.56 263.946 1773.91 252.044 1789.54 243.628C1805.41 235.212 1822.24 231.004 1840.03 231.004C1857.35 231.004 1871.65 234.731 1882.95 242.185C1894.25 249.639 1902.07 259.017 1906.4 270.318L1912.89 234.25H1946.07L1911.09 431.903H1877.9L1884.76 395.114C1876.1 406.656 1864.68 416.274 1850.49 423.968C1836.31 431.422 1820.68 435.149 1803.6 435.149C1788.21 435.149 1774.63 431.903 1762.85 425.411C1751.06 418.678 1741.93 409.18 1735.44 396.917C1728.94 384.654 1725.7 370.467 1725.7 354.357C1725.7 347.143 1726.42 339.809 1727.86 332.355ZM1895.58 332.716C1896.54 327.666 1897.02 322.256 1897.02 316.485C1897.02 298.932 1891.73 285.106 1881.15 275.007C1870.81 264.667 1857.59 259.498 1841.48 259.498C1829.21 259.498 1817.43 262.383 1806.13 268.154C1795.07 273.925 1785.57 282.341 1777.63 293.402C1769.7 304.463 1764.41 317.447 1761.76 332.355C1760.8 337.405 1760.32 342.935 1760.32 348.947C1760.32 366.74 1765.49 380.807 1775.83 391.146C1786.17 401.245 1799.4 406.295 1815.51 406.295C1827.77 406.295 1839.43 403.409 1850.49 397.639C1861.79 391.627 1871.41 383.091 1879.35 372.03C1887.52 360.729 1892.93 347.624 1895.58 332.716Z" fill="#030712"/>
<path d="M1633.49 406.656H1721.5L1716.81 431.903H1595.98L1640.71 180.509H1673.53L1633.49 406.656Z" fill="#030712"/>
<path d="M1526.14 230.644C1546.57 230.644 1562.93 236.174 1575.19 247.235C1587.45 258.055 1593.58 273.925 1593.58 294.845C1593.58 302.539 1592.98 309.392 1591.78 315.404L1571.22 431.904H1538.76L1558.6 320.092C1559.56 315.043 1560.04 309.753 1560.04 304.222C1560.04 289.555 1555.95 278.374 1547.78 270.679C1539.84 262.985 1528.66 259.137 1514.23 259.137C1496.92 259.137 1482.13 264.548 1469.87 275.368C1457.85 286.188 1450.03 301.938 1446.43 322.617V321.896L1426.95 431.904H1394.13L1429.11 234.25H1461.93L1456.89 262.744C1465.06 252.405 1475.28 244.47 1487.54 238.939C1499.81 233.409 1512.67 230.644 1526.14 230.644Z" fill="#030712"/>
<path d="M1326.08 230.644C1345.8 230.644 1361.67 236.174 1373.69 247.235C1385.72 258.056 1391.73 273.805 1391.73 294.484C1391.73 302.179 1391.13 309.152 1389.92 315.404L1369.37 431.904H1336.9L1356.74 320.093C1357.7 315.043 1358.18 309.753 1358.18 304.223C1358.18 289.555 1354.1 278.374 1345.92 270.68C1337.99 262.985 1326.81 259.138 1312.38 259.138C1295.07 259.138 1280.28 264.548 1268.01 275.368C1255.99 286.189 1248.18 301.939 1244.57 322.618V321.896L1225.09 431.904H1192.27L1239.52 165H1272.34L1255.03 262.745C1263.21 252.645 1273.55 244.831 1286.05 239.3C1298.79 233.529 1312.14 230.644 1326.08 230.644Z" fill="#030712"/>
<path d="M1102.3 435.149C1081.62 435.149 1064.66 430.22 1051.44 420.361C1038.21 410.503 1031.6 397.278 1031.6 380.687C1031.6 377.561 1031.72 375.276 1031.96 373.834H1064.06C1063.1 384.173 1066.11 392.589 1073.08 399.081C1080.29 405.573 1090.63 408.82 1104.1 408.82C1117.56 408.82 1128.39 406.295 1136.56 401.245C1144.98 395.955 1149.18 388.621 1149.18 379.244C1149.18 371.309 1145.82 365.057 1139.09 360.488C1132.35 355.92 1122.01 350.99 1108.07 345.7C1095.8 341.132 1085.7 336.804 1077.77 332.716C1069.83 328.628 1063.1 322.978 1057.57 315.764C1052.04 308.31 1049.28 298.932 1049.28 287.631C1049.28 276.57 1052.4 266.711 1058.65 258.055C1065.15 249.399 1074.04 242.786 1085.34 238.218C1096.89 233.408 1109.99 231.004 1124.66 231.004C1144.86 231.004 1161.45 236.053 1174.43 246.153C1187.42 256.252 1193.91 269.477 1193.91 285.827C1193.91 288.953 1193.79 291.358 1193.55 293.041H1162.17L1162.53 288.713C1162.53 279.095 1158.8 271.52 1151.35 265.99C1144.13 260.219 1134.52 257.334 1122.49 257.334C1110.71 257.334 1100.97 259.979 1093.28 265.269C1085.82 270.559 1082.1 277.652 1082.1 286.549C1082.1 294.965 1085.58 301.577 1092.56 306.386C1099.53 311.195 1110.35 316.485 1125.02 322.256C1137.28 327.065 1147.14 331.514 1154.59 335.601C1162.05 339.449 1168.42 344.859 1173.71 351.832C1179 358.805 1181.65 367.582 1181.65 378.162C1181.65 389.704 1178.16 399.803 1171.19 408.459C1164.45 417.115 1155.08 423.728 1143.05 428.296C1131.03 432.865 1117.44 435.149 1102.3 435.149Z" fill="#030712"/>
<path d="M917.754 435.149C901.163 435.149 886.495 431.783 873.751 425.05C861.248 418.077 851.509 408.459 844.536 396.196C837.563 383.692 834.076 369.265 834.076 352.914C834.076 330.552 839.246 310.113 849.586 291.598C859.925 272.843 874.112 258.055 892.146 247.235C910.42 236.414 930.739 231.004 953.101 231.004C969.692 231.004 984.36 234.49 997.104 241.464C1010.09 248.196 1020.07 257.815 1027.04 270.318C1034.25 282.581 1037.86 297.009 1037.86 313.6C1037.86 335.962 1032.57 356.401 1021.99 374.916C1011.41 393.431 996.984 408.098 978.709 418.919C960.435 429.739 940.117 435.149 917.754 435.149ZM921.722 407.377C937.351 407.377 951.418 403.169 963.921 394.753C976.425 386.097 986.163 374.795 993.137 360.849C1000.35 346.662 1003.96 331.514 1003.96 315.403C1003.96 297.129 998.667 283.182 988.087 273.564C977.507 263.706 964.282 258.776 948.412 258.776C932.783 258.776 918.836 263.105 906.573 271.761C894.31 280.177 884.812 291.478 878.079 305.665C871.347 319.852 867.98 335.12 867.98 351.471C867.98 369.265 873.03 383.091 883.129 392.95C893.228 402.568 906.092 407.377 921.722 407.377Z" fill="#030712"/>
<path d="M741.511 406.656H829.517L824.828 431.903H704L748.724 180.509H781.546L741.511 406.656Z" fill="#030712"/>
<path d="M264.947 242.82C256.305 242.82 250.372 241.648 247.149 239.305C244.073 236.814 242.535 231.834 242.535 224.363C242.535 202.098 248.395 181.077 260.113 161.302C264.947 153.245 267.877 148.045 268.902 145.701C269.928 143.357 270.44 141.233 270.44 139.329C270.44 136.839 269.488 134.861 267.584 133.396C265.826 131.785 262.896 129.954 258.795 127.903C256.451 126.731 254.474 124.974 252.862 122.63C251.397 120.14 250.665 117.43 250.665 114.5C250.665 109.666 251.837 104.905 254.181 100.218C256.524 95.5303 259.601 91.4287 263.409 87.9131C267.218 84.3975 270.147 82.6396 272.198 82.6396C273.663 82.6396 274.396 83.3721 274.396 84.8369L273.956 88.792C273.956 91.8682 278.937 94.5781 288.897 96.9219C300.909 99.998 306.915 104.393 306.915 110.105C306.915 113.328 303.18 120.066 295.709 130.32C283.258 147.605 275.274 160.13 271.759 167.894C268.243 175.511 266.485 183.348 266.485 191.404C266.485 195.652 267.73 198.655 270.221 200.413C272.857 202.171 277.618 203.05 284.503 203.05H382.501C394.513 203.05 403.009 205.613 407.989 210.74C412.97 215.721 415.46 224.876 415.46 238.206C415.46 258.274 413.263 277.757 408.868 296.653C404.62 315.403 397.882 330.125 388.653 340.818C379.425 351.365 361.114 363.963 333.722 378.611C301.495 396.043 285.382 411.058 285.382 423.655L285.821 434.422C285.821 439.109 284.796 443.284 282.745 446.946C280.694 450.462 277.984 453.245 274.615 455.296C271.246 457.347 267.877 458.372 264.508 458.372C259.088 458.372 255.279 456.761 253.082 453.538C250.885 450.315 249.786 446.653 249.786 442.552C249.786 434.788 252.203 426.438 257.037 417.503C261.871 408.421 268.536 399.925 277.032 392.015C285.528 383.958 300.689 373.777 322.516 361.473C340.387 351.365 353.204 343.089 360.968 336.644C368.878 330.052 374.371 323.973 377.447 318.406C380.523 312.693 383.014 304.856 384.918 294.896C386.969 284.788 387.994 274.607 387.994 264.354C387.994 257.908 387.335 253.294 386.017 250.511C384.698 247.581 382.208 245.604 378.546 244.578C375.03 243.406 367.926 242.82 357.232 242.82H264.947ZM287.579 305.223C287.579 300.096 289.337 295.921 292.853 292.698C296.368 289.329 300.47 287.645 305.157 287.645C309.845 287.645 313.946 289.329 317.462 292.698C320.978 295.921 322.735 300.096 322.735 305.223C322.735 309.91 320.978 313.938 317.462 317.308C313.946 320.53 309.845 322.142 305.157 322.142C300.47 322.142 296.368 320.53 292.853 317.308C289.337 313.938 287.579 309.91 287.579 305.223Z" fill="#EDEDED"/>
</svg>
