<svg width="2253" height="600" viewBox="0 0 2253 600" fill="none" xmlns="http://www.w3.org/2000/svg">
<g clip-path="url(#clip0_407_218)">
<rect width="2253" height="600" rx="300" transform="matrix(1 0 0 -1 0 600)" fill="#030712"/>
<path d="M1896.01 271.04C1904.91 259.258 1916.45 249.64 1930.64 242.186C1944.83 234.732 1960.22 231.005 1976.81 231.005C2000.37 231.005 2019.25 238.098 2033.43 252.285C2047.86 266.472 2055.07 285.708 2055.07 309.994C2055.07 316.967 2054.35 324.421 2052.91 332.356C2049.3 352.314 2041.97 370.107 2030.91 385.737C2020.09 401.366 2006.74 413.509 1990.87 422.166C1975.24 430.822 1958.65 435.15 1941.1 435.15C1924.03 435.15 1909.72 431.423 1898.18 423.969C1886.64 416.515 1878.58 407.017 1874.01 395.475L1867.52 431.904H1834.7L1881.95 165H1914.77L1896.01 271.04ZM2019.37 332.356C2020.33 327.306 2020.81 321.776 2020.81 315.765C2020.81 298.211 2015.64 284.506 2005.3 274.647C1994.96 264.548 1981.62 259.498 1965.26 259.498C1953.24 259.498 1941.58 262.504 1930.28 268.515C1918.98 274.286 1909.24 282.822 1901.06 294.124C1893.13 305.185 1887.84 318.049 1885.19 332.717C1884.23 337.766 1883.75 343.297 1883.75 349.308C1883.75 366.861 1888.92 380.807 1899.26 391.147C1909.84 401.246 1923.19 406.296 1939.3 406.296C1951.56 406.296 1963.22 403.41 1974.28 397.639C1985.58 391.628 1995.2 383.092 2003.14 372.031C2011.31 360.73 2016.72 347.505 2019.37 332.356Z" fill="#EDEDED"/>
<path d="M1624.86 332.355C1628.47 312.157 1635.68 294.484 1646.5 279.335C1657.56 263.946 1670.91 252.044 1686.54 243.628C1702.41 235.212 1719.24 231.004 1737.03 231.004C1754.35 231.004 1768.65 234.731 1779.95 242.185C1791.25 249.639 1799.07 259.017 1803.4 270.318L1809.89 234.25H1843.07L1808.09 431.903H1774.9L1781.76 395.114C1773.1 406.656 1761.68 416.274 1747.49 423.968C1733.31 431.422 1717.68 435.149 1700.6 435.149C1685.21 435.149 1671.63 431.903 1659.85 425.411C1648.06 418.678 1638.93 409.18 1632.44 396.917C1625.94 384.654 1622.7 370.467 1622.7 354.357C1622.7 347.143 1623.42 339.809 1624.86 332.355ZM1792.58 332.716C1793.54 327.666 1794.02 322.256 1794.02 316.485C1794.02 298.932 1788.73 285.106 1778.15 275.007C1767.81 264.667 1754.59 259.498 1738.48 259.498C1726.21 259.498 1714.43 262.383 1703.13 268.154C1692.07 273.925 1682.57 282.341 1674.63 293.402C1666.7 304.463 1661.41 317.447 1658.76 332.355C1657.8 337.405 1657.32 342.935 1657.32 348.947C1657.32 366.74 1662.49 380.807 1672.83 391.146C1683.17 401.245 1696.4 406.295 1712.51 406.295C1724.77 406.295 1736.43 403.409 1747.49 397.639C1758.79 391.627 1768.41 383.091 1776.35 372.03C1784.52 360.729 1789.93 347.624 1792.58 332.716Z" fill="#EDEDED"/>
<path d="M1530.49 406.656H1618.5L1613.81 431.903H1492.98L1537.71 180.509H1570.53L1530.49 406.656Z" fill="#EDEDED"/>
<path d="M1423.14 230.644C1443.57 230.644 1459.93 236.174 1472.19 247.235C1484.45 258.055 1490.58 273.925 1490.58 294.845C1490.58 302.539 1489.98 309.392 1488.78 315.404L1468.22 431.904H1435.76L1455.6 320.092C1456.56 315.043 1457.04 309.753 1457.04 304.222C1457.04 289.555 1452.95 278.374 1444.78 270.679C1436.84 262.985 1425.66 259.137 1411.23 259.137C1393.92 259.137 1379.13 264.548 1366.87 275.368C1354.85 286.188 1347.03 301.938 1343.43 322.617V321.896L1323.95 431.904H1291.13L1326.11 234.25H1358.93L1353.89 262.744C1362.06 252.405 1372.28 244.47 1384.54 238.939C1396.81 233.409 1409.67 230.644 1423.14 230.644Z" fill="#EDEDED"/>
<path d="M1223.08 230.644C1242.8 230.644 1258.67 236.174 1270.69 247.235C1282.72 258.056 1288.73 273.805 1288.73 294.484C1288.73 302.179 1288.13 309.152 1286.92 315.404L1266.37 431.904H1233.9L1253.74 320.093C1254.7 315.043 1255.18 309.753 1255.18 304.223C1255.18 289.555 1251.1 278.374 1242.92 270.68C1234.99 262.985 1223.81 259.138 1209.38 259.138C1192.07 259.138 1177.28 264.548 1165.01 275.368C1152.99 286.189 1145.18 301.939 1141.57 322.618V321.896L1122.09 431.904H1089.27L1136.52 165H1169.34L1152.03 262.745C1160.21 252.645 1170.55 244.831 1183.05 239.3C1195.79 233.529 1209.14 230.644 1223.08 230.644Z" fill="#EDEDED"/>
<path d="M999.296 435.149C978.617 435.149 961.665 430.22 948.44 420.361C935.215 410.503 928.602 397.278 928.602 380.687C928.602 377.561 928.723 375.276 928.963 373.834H961.064C960.102 384.173 963.108 392.589 970.081 399.081C977.294 405.573 987.634 408.82 1001.1 408.82C1014.56 408.82 1025.39 406.295 1033.56 401.245C1041.98 395.955 1046.18 388.621 1046.18 379.244C1046.18 371.309 1042.82 365.057 1036.09 360.488C1029.35 355.92 1019.01 350.99 1005.07 345.7C992.804 341.132 982.705 336.804 974.77 332.716C966.835 328.628 960.102 322.978 954.571 315.764C949.041 308.31 946.276 298.932 946.276 287.631C946.276 276.57 949.402 266.711 955.653 258.055C962.146 249.399 971.043 242.786 982.344 238.218C993.886 233.408 1006.99 231.004 1021.66 231.004C1041.86 231.004 1058.45 236.053 1071.43 246.153C1084.42 256.252 1090.91 269.477 1090.91 285.827C1090.91 288.953 1090.79 291.358 1090.55 293.041H1059.17L1059.53 288.713C1059.53 279.095 1055.8 271.52 1048.35 265.99C1041.13 260.219 1031.52 257.334 1019.49 257.334C1007.71 257.334 997.973 259.979 990.279 265.269C982.825 270.559 979.098 277.652 979.098 286.549C979.098 294.965 982.584 301.577 989.558 306.386C996.531 311.195 1007.35 316.485 1022.02 322.256C1034.28 327.065 1044.14 331.514 1051.59 335.601C1059.05 339.449 1065.42 344.859 1070.71 351.832C1076 358.805 1078.65 367.582 1078.65 378.162C1078.65 389.704 1075.16 399.803 1068.19 408.459C1061.45 417.115 1052.08 423.728 1040.05 428.296C1028.03 432.865 1014.44 435.149 999.296 435.149Z" fill="#EDEDED"/>
<path d="M814.754 435.149C798.163 435.149 783.495 431.783 770.751 425.05C758.248 418.077 748.509 408.459 741.536 396.196C734.563 383.692 731.076 369.265 731.076 352.914C731.076 330.552 736.246 310.113 746.586 291.598C756.925 272.843 771.112 258.055 789.146 247.235C807.42 236.414 827.739 231.004 850.101 231.004C866.692 231.004 881.36 234.49 894.104 241.464C907.089 248.196 917.067 257.815 924.041 270.318C931.254 282.581 934.861 297.009 934.861 313.6C934.861 335.962 929.571 356.401 918.991 374.916C908.411 393.431 893.984 408.098 875.709 418.919C857.435 429.739 837.117 435.149 814.754 435.149ZM818.722 407.377C834.351 407.377 848.418 403.169 860.921 394.753C873.425 386.097 883.163 374.795 890.137 360.849C897.35 346.662 900.957 331.514 900.957 315.403C900.957 297.129 895.667 283.182 885.087 273.564C874.507 263.706 861.282 258.776 845.412 258.776C829.783 258.776 815.836 263.105 803.573 271.761C791.31 280.177 781.812 291.478 775.079 305.665C768.347 319.852 764.98 335.12 764.98 351.471C764.98 369.265 770.03 383.091 780.129 392.95C790.228 402.568 803.092 407.377 818.722 407.377Z" fill="#EDEDED"/>
<path d="M638.511 406.656H726.517L721.828 431.903H601L645.724 180.509H678.546L638.511 406.656Z" fill="#EDEDED"/>
<path d="M264.947 242.82C256.305 242.82 250.372 241.648 247.149 239.305C244.073 236.814 242.535 231.834 242.535 224.363C242.535 202.098 248.395 181.077 260.113 161.302C264.947 153.245 267.877 148.045 268.902 145.701C269.928 143.357 270.44 141.233 270.44 139.329C270.44 136.839 269.488 134.861 267.584 133.396C265.826 131.785 262.896 129.954 258.795 127.903C256.451 126.731 254.474 124.974 252.862 122.63C251.397 120.14 250.665 117.43 250.665 114.5C250.665 109.666 251.837 104.905 254.181 100.218C256.524 95.5303 259.601 91.4287 263.409 87.9131C267.218 84.3975 270.147 82.6396 272.198 82.6396C273.663 82.6396 274.396 83.3721 274.396 84.8369L273.956 88.792C273.956 91.8682 278.937 94.5781 288.897 96.9219C300.909 99.998 306.915 104.393 306.915 110.105C306.915 113.328 303.18 120.066 295.709 130.32C283.258 147.605 275.274 160.13 271.759 167.894C268.243 175.511 266.485 183.348 266.485 191.404C266.485 195.652 267.73 198.655 270.221 200.413C272.857 202.171 277.618 203.05 284.503 203.05H382.501C394.513 203.05 403.009 205.613 407.989 210.74C412.97 215.721 415.46 224.876 415.46 238.206C415.46 258.274 413.263 277.757 408.868 296.653C404.62 315.403 397.882 330.125 388.653 340.818C379.425 351.365 361.114 363.963 333.722 378.611C301.495 396.043 285.382 411.058 285.382 423.655L285.821 434.422C285.821 439.109 284.796 443.284 282.745 446.946C280.694 450.462 277.984 453.245 274.615 455.296C271.246 457.347 267.877 458.372 264.508 458.372C259.088 458.372 255.279 456.761 253.082 453.538C250.885 450.315 249.786 446.653 249.786 442.552C249.786 434.788 252.203 426.438 257.037 417.503C261.871 408.421 268.536 399.925 277.032 392.015C285.528 383.958 300.689 373.777 322.516 361.473C340.387 351.365 353.204 343.089 360.968 336.644C368.878 330.052 374.371 323.973 377.447 318.406C380.523 312.693 383.014 304.856 384.918 294.896C386.969 284.788 387.994 274.607 387.994 264.354C387.994 257.908 387.335 253.294 386.017 250.511C384.698 247.581 382.208 245.604 378.546 244.578C375.03 243.406 367.926 242.82 357.232 242.82H264.947ZM287.579 305.223C287.579 300.096 289.337 295.921 292.853 292.698C296.368 289.329 300.47 287.645 305.157 287.645C309.845 287.645 313.946 289.329 317.462 292.698C320.978 295.921 322.735 300.096 322.735 305.223C322.735 309.91 320.978 313.938 317.462 317.308C313.946 320.53 309.845 322.142 305.157 322.142C300.47 322.142 296.368 320.53 292.853 317.308C289.337 313.938 287.579 309.91 287.579 305.223Z" fill="#EDEDED"/>
</g>
<defs>
<clipPath id="clip0_407_218">
<rect width="2253" height="600" fill="white"/>
</clipPath>
</defs>
</svg>
